<svg width="228" height="166" viewBox="0 0 228 166" fill="none" xmlns="http://www.w3.org/2000/svg">
<path d="M134 16C167.137 16 194 42.8629 194 76V96H179.036C179.336 94.1034 179.5 92.1043 179.5 90.0029C179.5 73.503 163.003 58.7529 147.5 59.0029C131.997 59.253 131 70.0029 114.5 70.0029C98 70.0029 97.003 59.253 81.5 59.0029C65.9971 58.7529 49.5001 73.503 49.5 90.0029C49.5 92.1044 49.665 94.1033 49.9727 96H34V76C34 42.8629 60.8629 16 94 16H134Z" fill="white"/>
<path d="M194 106C194 139.137 167.137 166 134 166H94C60.8629 166 34 139.137 34 106V96H49.9727C52.769 113.238 67.586 122.003 82 122.003H155C162.207 122.003 176.311 113.238 179.036 96H194V106Z" fill="#518FF6"/>
<path d="M127.339 101.334C128.901 101.842 129.778 103.538 129.006 104.988C127.8 107.254 126.09 109.229 123.992 110.753C121.088 112.863 117.59 114 114 114C110.41 114 106.912 112.863 104.008 110.753C101.91 109.229 100.2 107.254 98.9936 104.988C98.2216 103.538 99.0988 101.842 100.661 101.334V101.334C102.224 100.826 103.873 101.716 104.778 103.087C105.504 104.187 106.426 105.155 107.505 105.94C109.393 107.311 111.666 108.05 114 108.05C116.334 108.05 118.607 107.311 120.495 105.94C121.574 105.155 122.496 104.187 123.222 103.087C124.127 101.716 125.776 100.826 127.339 101.334V101.334Z" fill="white"/>
<rect x="10" y="59" width="20" height="64" rx="10" fill="white"/>
<path d="M136 0C177.974 0 212 34.0264 212 76V114H204V76C204 38.4446 173.555 8 136 8H92C54.4446 8 24 38.4446 24 76V114H16V76C16 34.0264 50.0264 0 92 0H136Z" fill="white"/>
<path d="M8 111C5.87827 111 3.84344 108.893 2.34315 105.142C0.842855 101.391 -5.90226e-08 96.3043 0 91C5.90226e-08 85.6957 0.842855 80.6086 2.34315 76.8579C3.84344 73.1071 5.87827 71 8 71V111Z" fill="#518FF6"/>
<path d="M220 111C222.122 111 224.157 108.893 225.657 105.142C227.157 101.391 228 96.3043 228 91C228 85.6957 227.157 80.6086 225.657 76.8579C224.157 73.1071 222.122 71 220 71V111Z" fill="#518FF6"/>
<rect x="198" y="59" width="20" height="64" rx="10" fill="white"/>
<circle cx="79" cy="91" r="10" fill="white"/>
<circle cx="149" cy="91" r="10" fill="white"/>
</svg>
