<svg width="944" height="166" viewBox="0 0 944 166" fill="none" xmlns="http://www.w3.org/2000/svg">
<path d="M134 16C167.137 16 194 42.8629 194 76V96H179.036C179.336 94.1034 179.5 92.1043 179.5 90.0029C179.5 73.503 163.003 58.7529 147.5 59.0029C131.997 59.253 131 70.0029 114.5 70.0029C98 70.0029 97.003 59.253 81.5 59.0029C65.9971 58.7529 49.5001 73.503 49.5 90.0029C49.5 92.1044 49.665 94.1033 49.9727 96H34V76C34 42.8629 60.8629 16 94 16H134Z" fill="white"/>
<path d="M194 106C194 139.137 167.137 166 134 166H94C60.8629 166 34 139.137 34 106V96H49.9727C52.769 113.238 67.586 122.003 82 122.003H155C162.207 122.003 176.311 113.238 179.036 96H194V106Z" fill="#518FF6"/>
<path d="M127.339 101.334C128.901 101.842 129.778 103.538 129.006 104.988C127.8 107.254 126.09 109.229 123.992 110.753C121.088 112.863 117.59 114 114 114C110.41 114 106.912 112.863 104.008 110.753C101.91 109.229 100.2 107.254 98.9936 104.988C98.2216 103.538 99.0988 101.842 100.661 101.334V101.334C102.224 100.826 103.873 101.716 104.778 103.087C105.504 104.187 106.426 105.155 107.505 105.94C109.393 107.311 111.666 108.05 114 108.05C116.334 108.05 118.607 107.311 120.495 105.94C121.574 105.155 122.496 104.187 123.222 103.087C124.127 101.716 125.776 100.826 127.339 101.334V101.334Z" fill="white"/>
<rect x="10" y="59" width="20" height="64" rx="10" fill="white"/>
<path d="M136 0C177.974 0 212 34.0264 212 76V114H204V76C204 38.4446 173.555 8 136 8H92C54.4446 8 24 38.4446 24 76V114H16V76C16 34.0264 50.0264 0 92 0H136Z" fill="white"/>
<path d="M8 111C5.87827 111 3.84344 108.893 2.34315 105.142C0.842855 101.391 -5.90226e-08 96.3043 0 91C5.90226e-08 85.6957 0.842855 80.6086 2.34315 76.8579C3.84344 73.1071 5.87827 71 8 71V111Z" fill="#518FF6"/>
<path d="M220 111C222.122 111 224.157 108.893 225.657 105.142C227.157 101.391 228 96.3043 228 91C228 85.6957 227.157 80.6086 225.657 76.8579C224.157 73.1071 222.122 71 220 71V111Z" fill="#518FF6"/>
<rect x="198" y="59" width="20" height="64" rx="10" fill="white"/>
<circle cx="79" cy="91" r="10" fill="white"/>
<circle cx="149" cy="91" r="10" fill="white"/>
<path d="M293.857 39.9294C304.032 39.9294 312.959 41.9176 320.637 45.8941C328.407 49.8705 334.374 55.5578 338.537 62.9559C342.792 70.2615 344.92 78.7692 344.92 88.4792C344.92 98.1892 342.792 106.697 338.537 114.003C334.374 121.216 328.407 126.81 320.637 130.787C312.959 134.763 304.032 136.752 293.857 136.752H260V39.9294H293.857ZM293.163 120.245C303.339 120.245 311.202 117.47 316.752 111.922C322.302 106.373 325.077 98.5591 325.077 88.4792C325.077 78.3993 322.302 70.5389 316.752 64.8979C311.202 59.1644 303.339 56.2976 293.163 56.2976H279.426V120.245H293.163Z" fill="white"/>
<path d="M378.887 71.8335C381.385 67.7646 384.622 64.5742 388.6 62.2623C392.67 59.9504 397.296 58.7944 402.476 58.7944V79.1854H397.342C391.236 79.1854 386.611 80.6187 383.466 83.4855C380.413 86.3522 378.887 91.3459 378.887 98.4666V136.752H359.461V59.9042H378.887V71.8335Z" fill="white"/>
<path d="M425.412 50.7491C421.989 50.7491 419.122 49.6856 416.809 47.5586C414.589 45.3392 413.479 42.6112 413.479 39.3745C413.479 36.1379 414.589 33.4561 416.809 31.3291C419.122 29.1097 421.989 28 425.412 28C428.835 28 431.656 29.1097 433.876 31.3291C436.189 33.4561 437.345 36.1379 437.345 39.3745C437.345 42.6112 436.189 45.3392 433.876 47.5586C431.656 49.6856 428.835 50.7491 425.412 50.7491ZM434.986 59.9042V117.4C434.986 123.572 431.436 129.194 425.863 131.847L415.56 136.752V79.2555C415.56 73.0835 419.11 67.4618 424.683 64.8089L434.986 59.9042Z" fill="#518FF6"/>
<path d="M489.424 75.8562H475.964V136.752H456.261V75.8562H447.519V59.9042H456.261V56.0202C456.261 46.5876 458.943 39.652 464.309 35.2131C469.674 30.7743 477.768 28.6936 488.591 28.971V45.3392C483.873 45.2467 480.589 46.0328 478.739 47.6974C476.889 49.3619 475.964 52.3674 475.964 56.7137V59.9042H489.424V75.8562Z" fill="white"/>
<path d="M524.63 75.8562V113.032C524.63 115.621 525.231 117.517 526.434 118.719C527.729 119.828 529.857 120.383 532.817 120.383H541.836V136.752H529.625C513.252 136.752 505.065 128.799 505.065 112.893V75.8562H495.907V59.9042H505.065V40.9004H524.63V59.9042H541.836V75.8562H524.63Z" fill="white"/>
<path d="M575.234 71.14C577.732 67.4409 581.155 64.4355 585.502 62.1236C589.943 59.8117 594.984 58.6557 600.627 58.6557C607.195 58.6557 613.115 60.2741 618.388 63.5107C623.753 66.7474 627.962 71.3712 631.015 77.3821C634.16 83.3005 635.733 90.19 635.733 98.0504C635.733 105.911 634.16 112.893 631.015 118.996C627.962 125.007 623.753 129.677 618.388 133.006C613.115 136.335 607.195 138 600.627 138C594.892 138 589.85 136.89 585.502 134.671C581.247 132.359 577.825 129.4 575.234 125.793V136.752H555.808V34.1034H575.234V71.14ZM615.89 98.0504C615.89 93.4266 614.919 89.4502 612.976 86.1211C611.126 82.6995 608.629 80.1101 605.484 78.3531C602.431 76.596 599.101 75.7175 595.493 75.7175C591.978 75.7175 588.648 76.6423 585.502 78.4918C582.45 80.2488 579.952 82.8382 578.01 86.2598C576.159 89.6814 575.234 93.7041 575.234 98.3279C575.234 102.952 576.159 106.974 578.01 110.396C579.952 113.818 582.45 116.453 585.502 118.303C588.648 120.06 591.978 120.938 595.493 120.938C599.101 120.938 602.431 120.013 605.484 118.164C608.629 116.314 611.126 113.679 612.976 110.257C614.919 106.836 615.89 102.767 615.89 98.0504Z" fill="white"/>
<path d="M683.983 138C676.583 138 669.923 136.382 664.002 133.145C658.082 129.816 653.411 125.146 649.988 119.135C646.658 113.124 644.993 106.188 644.993 98.3279C644.993 90.4674 646.704 83.5317 650.127 77.5208C653.642 71.5099 658.406 66.8861 664.419 63.6494C670.431 60.3203 677.138 58.6557 684.538 58.6557C691.939 58.6557 698.646 60.3203 704.658 63.6494C710.671 66.8861 715.389 71.5099 718.812 77.5208C722.327 83.5317 724.084 90.4674 724.084 98.3279C724.084 106.188 722.281 113.124 718.673 119.135C715.158 125.146 710.347 129.816 704.242 133.145C698.229 136.382 691.476 138 683.983 138ZM683.983 121.077C687.499 121.077 690.783 120.245 693.835 118.58C696.98 116.823 699.478 114.234 701.328 110.812C703.178 107.391 704.103 103.229 704.103 98.3279C704.103 91.0223 702.161 85.4275 698.275 81.5435C694.483 77.567 689.811 75.5788 684.261 75.5788C678.711 75.5788 674.039 77.567 670.246 81.5435C666.546 85.4275 664.696 91.0223 664.696 98.3279C664.696 105.633 666.5 111.274 670.108 115.251C673.808 119.135 678.433 121.077 683.983 121.077Z" fill="white"/>
<path d="M760.952 75.8562V113.032C760.952 115.621 761.553 117.517 762.755 118.719C764.051 119.828 766.178 120.383 769.138 120.383H778.158V136.752H765.947C749.574 136.752 741.387 128.799 741.387 112.893V75.8562H732.229V59.9042H741.387V40.9004H760.952V59.9042H778.158V75.8562H760.952Z" fill="white"/>
<path d="M800.733 137.723C797.218 137.723 794.304 136.659 791.991 134.532C789.771 132.313 788.661 129.585 788.661 126.348C788.661 123.111 789.771 120.43 791.991 118.303C794.304 116.083 797.218 114.974 800.733 114.974C804.155 114.974 806.977 116.083 809.197 118.303C811.417 120.43 812.527 123.111 812.527 126.348C812.527 129.585 811.417 132.313 809.197 134.532C806.977 136.659 804.155 137.723 800.733 137.723Z" fill="white"/>
<path d="M823.179 98.0504C823.179 90.2825 824.705 83.393 827.758 77.3821C830.903 71.3712 835.112 66.7474 840.385 63.5107C845.75 60.2741 851.717 58.6557 858.285 58.6557C864.02 58.6557 869.015 59.8117 873.27 62.1236C877.618 64.4355 881.087 67.3485 883.677 70.8625V59.9042H903.242V136.752H883.677V125.516C881.18 129.122 877.711 132.128 873.27 134.532C868.923 136.844 863.881 138 858.146 138C851.67 138 845.75 136.335 840.385 133.006C835.112 129.677 830.903 125.007 827.758 118.996C824.705 112.893 823.179 105.911 823.179 98.0504ZM883.677 98.3279C883.677 93.6116 882.752 89.5889 880.902 86.2598C879.052 82.8382 876.554 80.2488 873.409 78.4918C870.264 76.6423 866.888 75.7175 863.28 75.7175C859.672 75.7175 856.342 76.596 853.289 78.3531C850.237 80.1101 847.739 82.6995 845.796 86.1211C843.946 89.4502 843.021 93.4266 843.021 98.0504C843.021 102.674 843.946 106.743 845.796 110.257C847.739 113.679 850.237 116.314 853.289 118.164C856.434 120.013 859.765 120.938 863.28 120.938C866.888 120.938 870.264 120.06 873.409 118.303C876.554 116.453 879.052 113.864 880.902 110.535C882.752 107.113 883.677 103.044 883.677 98.3279Z" fill="white"/>
<path d="M932.067 50.7491C928.644 50.7491 925.776 49.6856 923.464 47.5586C921.244 45.3392 920.134 42.6112 920.134 39.3745C920.134 36.1379 921.244 33.4561 923.464 31.3291C925.776 29.1097 928.644 28 932.067 28C935.489 28 938.311 29.1097 940.531 31.3291C942.844 33.4561 944 36.1379 944 39.3745C944 42.6112 942.844 45.3392 940.531 47.5586C938.311 49.6856 935.489 50.7491 932.067 50.7491ZM941.641 59.9042V117.4C941.641 123.572 938.091 129.194 932.518 131.847L922.215 136.752V79.2555C922.215 73.0835 925.765 67.4618 931.338 64.8089L941.641 59.9042Z" fill="#518FF6"/>
</svg>
